<svg width="37" height="370" xmlns="http://www.w3.org/2000/svg"><path d="M1.728 338.44c0-1.504-.048-2.736-.144-3.696h.96c.416.832 1.168 1.672 2.256 2.52 1.088.848 2.576 1.608 4.464 2.28l26.304 9.36a42.173 42.173 0 0 0-.096 2.544c0 .64.032 1.472.096 2.496L5.616 366.52c-1.024.416-1.784.872-2.28 1.368-.496.496-.76.984-.792 1.464h-.96c.096-2.304.144-5.216.144-8.736 0-3.648-.048-6.336-.144-8.064h.96c.064 1.216.208 2.08.432 2.592s.672.768 1.344.768c.544 0 1.296-.192 2.256-.576l20.448-8.304-13.056-4.656c-2.944-1.056-5.312-1.584-7.104-1.584-2.784 0-4.224 1.312-4.32 3.936h-.96c.096-2.4.144-4.496.144-6.288zm.816-21.024c.064 1.024.192 1.768.384 2.232.192.464.56.776 1.104.936.544.16 1.424.24 2.64.24H30.48c1.216 0 2.096-.088 2.64-.264.544-.176.912-.488 1.104-.936.192-.448.32-1.184.384-2.208h.96c-.096 1.856-.144 4.528-.144 8.016 0 3.872.048 6.72.144 8.544h-.96c-.064-1.024-.192-1.768-.384-2.232-.192-.464-.56-.776-1.104-.936-.544-.16-1.424-.24-2.64-.24H6.672c-1.216 0-2.096.088-2.64.264-.544.176-.912.488-1.104.936-.192.448-.32 1.184-.384 2.208h-.96c.096-1.824.144-4.672.144-8.544 0-3.456-.048-6.128-.144-8.016h.96zM31.68 282.04c.736-.448 1.32-.88 1.752-1.296.432-.416.824-.96 1.176-1.632h.96a242.853 242.853 0 0 0-.144 8.64c0 2.368.048 4.656.144 6.864h-.96c-.064-1.024-.152-1.736-.264-2.136-.112-.4-.328-.6-.648-.6s-.736.16-1.248.48l-11.76 6.96c-.768.448-1.296.824-1.584 1.128-.288.304-.464.68-.528 1.128H30.48c1.216 0 2.096-.088 2.64-.264.544-.176.912-.488 1.104-.936.192-.448.32-1.184.384-2.208h.96c-.096 1.856-.144 4.528-.144 8.016 0 3.872.048 6.72.144 8.544h-.96c-.064-1.024-.192-1.768-.384-2.232-.192-.464-.56-.776-1.104-.936-.544-.16-1.424-.24-2.64-.24H6.672c-1.216 0-2.096.088-2.64.264-.544.176-.912.488-1.104.936-.192.448-.32 1.184-.384 2.208h-.96c.096-1.824.144-4.672.144-8.544 0-3.456-.048-6.128-.144-8.016h.96c.064 1.024.192 1.768.384 2.232.192.464.56.776 1.104.936.544.16 1.424.24 2.64.24H17.52c-.096-1.28-.576-2.528-1.44-3.744-.864-1.216-2.288-2.704-4.272-4.464l-1.824-1.632c-1.6-1.408-3.04-2.112-4.32-2.112-.928 0-1.672.368-2.232 1.104-.56.736-.872 1.68-.936 2.832h-.912c.096-2.688.144-5.392.144-8.112 0-1.952-.048-3.568-.144-4.848h.912c.736 2.784 2.496 5.408 5.28 7.872l5.328 4.704L31.68 282.04zM2.544 261.976c.064 1.024.192 1.768.384 2.232.192.464.56.776 1.104.936.544.16 1.424.24 2.64.24H30.48c1.216 0 2.096-.088 2.64-.264.544-.176.912-.488 1.104-.936.192-.448.32-1.184.384-2.208h.96c-.096 1.856-.144 4.528-.144 8.016 0 3.872.048 6.72.144 8.544h-.96c-.064-1.024-.192-1.768-.384-2.232-.192-.464-.56-.776-1.104-.936-.544-.16-1.424-.24-2.64-.24H6.672c-1.216 0-2.096.088-2.64.264-.544.176-.912.488-1.104.936-.192.448-.32 1.184-.384 2.208h-.96c.096-1.824.144-4.672.144-8.544 0-3.456-.048-6.128-.144-8.016h.96zm0-35.328c.224.992.568 1.728 1.032 2.208.464.48 1.176.8 2.136.96.96.16 2.4.24 4.32.24h25.536c-.064.64-.096 1.168-.096 1.584 0 .352.032.944.096 1.776L12.336 254.68H26.16c2.368 0 4.072-.096 5.112-.288 1.04-.192 1.8-.616 2.28-1.272.48-.656.832-1.752 1.056-3.288h.96c-.096 1.312-.144 3.104-.144 5.376 0 1.696.048 3.024.144 3.984h-.96c-.224-.992-.568-1.728-1.032-2.208-.464-.48-1.176-.8-2.136-.96-.96-.16-2.4-.24-4.32-.24H6.672c-1.216 0-2.096.088-2.64.264-.544.176-.912.488-1.104.936-.192.448-.32 1.184-.384 2.208h-.96c.096-.96.144-2.288.144-3.984 0-1.728-.048-3.2-.144-4.416L22.32 231.16H10.992c-2.368 0-4.072.096-5.112.288-1.04.192-1.8.616-2.28 1.272-.48.656-.832 1.752-1.056 3.288h-.96c.096-1.312.144-3.104.144-5.376 0-1.696-.048-3.024-.144-3.984h.96zM.912 205.48c0-2.048.272-3.808.816-5.28a14.028 14.028 0 0 1 2.304-4.032c.288-.352.432-.672.432-.96 0-.32-.232-.576-.696-.768-.464-.192-1.192-.336-2.184-.432v-1.104c2.272.128 6.272.192 12 .192v1.104c-2.528.224-4.528.64-6 1.248-1.472.608-2.72 1.664-3.744 3.168a8.393 8.393 0 0 0-1.056 2.328 9.33 9.33 0 0 0-.384 2.616c0 2.304.808 4.168 2.424 5.592 1.616 1.424 3.656 2.432 6.12 3.024 2.464.592 5.04.888 7.728.888 5.568 0 9.728-.68 12.48-2.04 2.752-1.36 4.128-3.256 4.128-5.688 0-.992-.192-1.776-.576-2.352-.48-.672-1.28-1.008-2.4-1.008h-4.8c-1.6 0-2.776.128-3.528.384-.752.256-1.264.712-1.536 1.368-.272.656-.44 1.688-.504 3.096h-.96c.096-2.176.144-5.232.144-9.168 0-3.296-.048-5.76-.144-7.392h.96c.064.576.192 1 .384 1.272s.56.456 1.104.552c.544.096 1.424.144 2.64.144h9.504v.96a5.173 5.173 0 0 0-1.872.432c-.576.256-.864.608-.864 1.056 0 .672.368 1.76 1.104 3.264 1.536 3.2 2.304 5.904 2.304 8.112 0 5.952-1.504 10.448-4.512 13.488-3.008 3.04-7.296 4.56-12.864 4.56-3.52 0-6.64-.792-9.36-2.376-2.72-1.584-4.832-3.784-6.336-6.6-1.504-2.816-2.256-6.032-2.256-9.648zm.672-68.688c3.552.224 6.72.336 9.504.336 1.472 0 2.624-.048 3.456-.144v1.104c-4.192 1.056-7.216 2.416-9.072 4.08-1.856 1.664-2.784 3.456-2.784 5.376v.048h27.456c1.344 0 2.32-.136 2.928-.408.608-.272 1.016-.768 1.224-1.488.208-.72.312-1.864.312-3.432h.96c-.096 4.512-.144 8.016-.144 10.512 0 2.272.048 5.568.144 9.888h-.96c0-1.568-.104-2.712-.312-3.432-.208-.72-.616-1.216-1.224-1.488s-1.584-.408-2.928-.408H2.688v.048c0 1.952.92 3.752 2.76 5.4 1.84 1.648 4.872 3 9.096 4.056v1.104c-.832-.096-1.984-.144-3.456-.144-2.784 0-5.952.112-9.504.336.096-3.04.144-8.272.144-15.696 0-7.392-.048-12.608-.144-15.648zm-.672-20.976c0-3.616.688-6.784 2.064-9.504 1.376-2.72 3.368-4.832 5.976-6.336 2.608-1.504 5.72-2.256 9.336-2.256 3.52 0 6.64.768 9.36 2.304 2.72 1.536 4.832 3.68 6.336 6.432 1.504 2.752 2.256 5.888 2.256 9.408 0 3.616-.688 6.784-2.064 9.504-1.376 2.72-3.368 4.832-5.976 6.336-2.608 1.504-5.72 2.256-9.336 2.256-3.52 0-6.64-.768-9.36-2.304-2.72-1.536-4.832-3.68-6.336-6.432-1.504-2.752-2.256-5.888-2.256-9.408zm.864.192c0 1.568.712 2.952 2.136 4.152 1.424 1.2 3.416 2.12 5.976 2.76 2.56.64 5.488.96 8.784.96 3.328 0 6.256-.368 8.784-1.104 2.528-.736 4.48-1.728 5.856-2.976 1.376-1.248 2.064-2.624 2.064-4.128 0-1.568-.712-2.952-2.136-4.152-1.424-1.2-3.416-2.12-5.976-2.76-2.56-.64-5.488-.96-8.784-.96-3.328 0-6.256.368-8.784 1.104-2.528.736-4.48 1.728-5.856 2.976-1.376 1.248-2.064 2.624-2.064 4.128zm.768-52.464c.224.992.568 1.728 1.032 2.208.464.48 1.176.8 2.136.96.96.16 2.4.24 4.32.24H21.6c4.608 0 8 .656 10.176 1.968 1.44.864 2.544 2.136 3.312 3.816.768 1.68 1.152 3.848 1.152 6.504 0 3.872-.768 6.88-2.304 9.024-1.12 1.568-2.624 2.616-4.512 3.144-1.888.528-4.448.792-7.68.792H6.672c-1.216 0-2.096.08-2.64.24-.544.16-.912.472-1.104.936-.192.464-.32 1.208-.384 2.232h-.96c.096-1.824.144-4.64.144-8.448 0-3.776-.048-6.64-.144-8.592h.96c.064 1.152.192 1.992.384 2.52s.56.888 1.104 1.08c.544.192 1.424.288 2.64.288h19.584c3.072 0 5.224-.48 6.456-1.44 1.232-.96 1.848-2.48 1.848-4.56 0-3.04-1.08-5.2-3.24-6.48-2.16-1.28-5.224-1.92-9.192-1.92H10.992c-2.368 0-4.072.096-5.112.288-1.04.192-1.8.616-2.28 1.272-.48.656-.832 1.752-1.056 3.288h-.96c.096-1.312.144-3.104.144-5.376 0-1.696-.048-3.024-.144-3.984h.96zM33.648 27.16c.96.96 1.632 2.016 2.016 3.168.384 1.152.576 2.496.576 4.032 0 2.208-.392 3.92-1.176 5.136-.784 1.216-2.12 1.968-4.008 2.256l-4.8.72c-2.24.32-3.936.76-5.088 1.32-1.152.56-1.728 1.4-1.728 2.52v2.16h11.04c1.216 0 2.096-.088 2.64-.264.544-.176.912-.488 1.104-.936.192-.448.32-1.184.384-2.208h.96c-.096 1.856-.144 4.528-.144 8.016 0 3.872.048 6.72.144 8.544h-.96c-.064-1.024-.192-1.768-.384-2.232-.192-.464-.56-.776-1.104-.936-.544-.16-1.424-.24-2.64-.24H6.672c-1.216 0-2.096.088-2.64.264-.544.176-.912.488-1.104.936-.192.448-.32 1.184-.384 2.208h-.96c.096-1.824.144-4.576.144-8.256l-.048-5.52a44.773 44.773 0 0 1-.048-2.208c0-4.864.688-8.488 2.064-10.872 1.376-2.384 3.472-3.576 6.288-3.576 2.4 0 4.448.896 6.144 2.688 1.696 1.792 2.736 4.8 3.12 9.024.224-3.264.84-5.728 1.848-7.392 1.008-1.664 2.488-2.688 4.44-3.072l4.992-1.008c1.184-.224 2-.496 2.448-.816.448-.32.672-.768.672-1.344 0-.576-.208-1.072-.624-1.488l.624-.624zM2.544 45.88c0 .736.112 1.288.336 1.656.224.368.624.616 1.2.744s1.44.192 2.592.192H18.48v-1.296c0-2.272-.696-3.824-2.088-4.656-1.392-.832-3.352-1.248-5.88-1.248-2.624 0-4.608.36-5.952 1.08-1.344.72-2.016 1.896-2.016 3.528zM.912 13.864c0-1.824.168-3.304.504-4.44a16.315 16.315 0 0 1 1.416-3.336c.192-.352.352-.664.48-.936s.192-.504.192-.696c0-.288-.168-.512-.504-.672-.336-.16-.872-.288-1.608-.384V2.296c2.304.16 6.208.24 11.712.24V3.64a16.255 16.255 0 0 0-5.232 1.248c-1.664.704-3.024 1.664-4.08 2.88s-1.584 2.624-1.584 4.224c0 1.472.392 2.656 1.176 3.552.784.896 1.88 1.344 3.288 1.344 1.088 0 2.032-.24 2.832-.72.8-.48 1.576-1.184 2.328-2.112.752-.928 1.864-2.448 3.336-4.56a3.91 3.91 0 0 1 .336-.552 13.8 13.8 0 0 1 .384-.504c1.216-1.76 2.296-3.168 3.24-4.224a11.643 11.643 0 0 1 3.288-2.568c1.248-.656 2.688-.984 4.32-.984 2.08 0 3.832.584 5.256 1.752 1.424 1.168 2.488 2.744 3.192 4.728.704 1.984 1.056 4.176 1.056 6.576 0 1.952-.16 3.576-.48 4.872a18.32 18.32 0 0 1-1.296 3.624c-.448.704-.672 1.248-.672 1.632 0 .288.168.512.504.672.336.16.872.288 1.608.384v1.104c-2.176-.128-6.816-.192-13.92-.192v-1.104c3.808-.224 6.896-1.024 9.264-2.4 2.368-1.376 3.552-3.488 3.552-6.336 0-1.76-.416-3.16-1.248-4.2-.832-1.04-1.984-1.56-3.456-1.56-1.824 0-3.384.568-4.68 1.704-1.296 1.136-2.744 2.904-4.344 5.304-1.28 1.92-2.4 3.456-3.36 4.608a12.517 12.517 0 0 1-3.336 2.832c-1.264.736-2.728 1.104-4.392 1.104-2.016 0-3.704-.544-5.064-1.632-1.36-1.088-2.368-2.536-3.024-4.344-.656-1.808-.984-3.784-.984-5.928z" fill="#C03B2B"/></svg>