<svg width="369" height="36" xmlns="http://www.w3.org/2000/svg"><path d="M31.144 1.16c1.504 0 2.736-.048 3.696-.144v.96c-.832.416-1.672 1.168-2.52 2.256-.848 1.088-1.608 2.576-2.28 4.464L20.68 35a42.173 42.173 0 0 0-2.544-.096c-.64 0-1.472.032-2.496.096L3.064 5.048c-.416-1.024-.872-1.784-1.368-2.28-.496-.496-.984-.76-1.464-.792v-.96c2.304.096 5.216.144 8.736.144 3.648 0 6.336-.048 8.064-.144v.96c-1.216.064-2.08.208-2.592.432s-.768.672-.768 1.344c0 .544.192 1.296.576 2.256l8.304 20.448L27.208 13.4c1.056-2.944 1.584-5.312 1.584-7.104 0-2.784-1.312-4.224-3.936-4.32v-.96c2.4.096 4.496.144 6.288.144zm21.024.816c-1.024.064-1.768.192-2.232.384-.464.192-.776.56-.936 1.104-.16.544-.24 1.424-.24 2.64v23.808c0 1.216.088 2.096.264 2.64.176.544.488.912.936 1.104.448.192 1.184.32 2.208.384V35c-1.856-.096-4.528-.144-8.016-.144-3.872 0-6.72.048-8.544.144v-.96c1.024-.064 1.768-.192 2.232-.384.464-.192.776-.56.936-1.104.16-.544.24-1.424.24-2.64V6.104c0-1.216-.088-2.096-.264-2.64-.176-.544-.488-.912-.936-1.104-.448-.192-1.184-.32-2.208-.384v-.96c1.824.096 4.672.144 8.544.144 3.456 0 6.128-.048 8.016-.144v.96zm35.376 29.136c.448.736.88 1.32 1.296 1.752.416.432.96.824 1.632 1.176V35a242.852 242.852 0 0 0-8.64-.144c-2.368 0-4.656.048-6.864.144v-.96c1.024-.064 1.736-.152 2.136-.264.4-.112.6-.328.6-.648s-.16-.736-.48-1.248l-6.96-11.76c-.448-.768-.824-1.296-1.128-1.584a2.008 2.008 0 0 0-1.128-.528v11.904c0 1.216.088 2.096.264 2.64.176.544.488.912.936 1.104.448.192 1.184.32 2.208.384V35c-1.856-.096-4.528-.144-8.016-.144-3.872 0-6.72.048-8.544.144v-.96c1.024-.064 1.768-.192 2.232-.384.464-.192.776-.56.936-1.104.16-.544.24-1.424.24-2.64V6.104c0-1.216-.088-2.096-.264-2.64-.176-.544-.488-.912-.936-1.104-.448-.192-1.184-.32-2.208-.384v-.96c1.824.096 4.672.144 8.544.144 3.456 0 6.128-.048 8.016-.144v.96c-1.024.064-1.768.192-2.232.384-.464.192-.776.56-.936 1.104-.16.544-.24 1.424-.24 2.64v10.848c1.28-.096 2.528-.576 3.744-1.44 1.216-.864 2.704-2.288 4.464-4.272l1.632-1.824c1.408-1.6 2.112-3.04 2.112-4.32 0-.928-.368-1.672-1.104-2.232-.736-.56-1.68-.872-2.832-.936v-.912c2.688.096 5.392.144 8.112.144 1.952 0 3.568-.048 4.848-.144v.912c-2.784.736-5.408 2.496-7.872 5.28l-4.704 5.328 11.136 18.576zm20.064-29.136c-1.024.064-1.768.192-2.232.384-.464.192-.776.56-.936 1.104-.16.544-.24 1.424-.24 2.64v23.808c0 1.216.088 2.096.264 2.64.176.544.488.912.936 1.104.448.192 1.184.32 2.208.384V35c-1.856-.096-4.528-.144-8.016-.144-3.872 0-6.72.048-8.544.144v-.96c1.024-.064 1.768-.192 2.232-.384.464-.192.776-.56.936-1.104.16-.544.24-1.424.24-2.64V6.104c0-1.216-.088-2.096-.264-2.64-.176-.544-.488-.912-.936-1.104-.448-.192-1.184-.32-2.208-.384v-.96c1.824.096 4.672.144 8.544.144 3.456 0 6.128-.048 8.016-.144v.96zm35.328 0c-.992.224-1.728.568-2.208 1.032-.48.464-.8 1.176-.96 2.136-.16.96-.24 2.4-.24 4.32V35a16.495 16.495 0 0 0-1.584-.096c-.352 0-.944.032-1.776.096l-21.264-23.232v13.824c0 2.368.096 4.072.288 5.112.192 1.04.616 1.8 1.272 2.28.656.48 1.752.832 3.288 1.056V35c-1.312-.096-3.104-.144-5.376-.144-1.696 0-3.024.048-3.984.144v-.96c.992-.224 1.728-.568 2.208-1.032.48-.464.8-1.176.96-2.136.16-.96.24-2.4.24-4.32V6.104c0-1.216-.088-2.096-.264-2.64-.176-.544-.488-.912-.936-1.104-.448-.192-1.184-.32-2.208-.384v-.96c.96.096 2.288.144 3.984.144 1.728 0 3.2-.048 4.416-.144l19.632 20.736V10.424c0-2.368-.096-4.072-.288-5.112-.192-1.04-.616-1.8-1.272-2.28-.656-.48-1.752-.832-3.288-1.056v-.96c1.312.096 3.104.144 5.376.144 1.696 0 3.024-.048 3.984-.144v.96zM164.104.344c2.048 0 3.808.272 5.28.816a14.028 14.028 0 0 1 4.032 2.304c.352.288.672.432.96.432.32 0 .576-.232.768-.696.192-.464.336-1.192.432-2.184h1.104c-.128 2.272-.192 6.272-.192 12h-1.104c-.224-2.528-.64-4.528-1.248-6-.608-1.472-1.664-2.72-3.168-3.744a8.393 8.393 0 0 0-2.328-1.056 9.33 9.33 0 0 0-2.616-.384c-2.304 0-4.168.808-5.592 2.424-1.424 1.616-2.432 3.656-3.024 6.12-.592 2.464-.888 5.04-.888 7.728 0 5.568.68 9.728 2.04 12.48 1.36 2.752 3.256 4.128 5.688 4.128.992 0 1.776-.192 2.352-.576.672-.48 1.008-1.28 1.008-2.4v-4.8c0-1.6-.128-2.776-.384-3.528-.256-.752-.712-1.264-1.368-1.536-.656-.272-1.688-.44-3.096-.504v-.96c2.176.096 5.232.144 9.168.144 3.296 0 5.76-.048 7.392-.144v.96c-.576.064-1 .192-1.272.384s-.456.56-.552 1.104c-.096.544-.144 1.424-.144 2.64V35h-.96a5.173 5.173 0 0 0-.432-1.872c-.256-.576-.608-.864-1.056-.864-.672 0-1.76.368-3.264 1.104-3.2 1.536-5.904 2.304-8.112 2.304-5.952 0-10.448-1.504-13.488-4.512-3.04-3.008-4.56-7.296-4.56-12.864 0-3.52.792-6.64 2.376-9.36 1.584-2.72 3.784-4.832 6.6-6.336 2.816-1.504 6.032-2.256 9.648-2.256zm68.688.672c-.224 3.552-.336 6.72-.336 9.504 0 1.472.048 2.624.144 3.456h-1.104c-1.056-4.192-2.416-7.216-4.08-9.072-1.664-1.856-3.456-2.784-5.376-2.784h-.048v27.456c0 1.344.136 2.32.408 2.928.272.608.768 1.016 1.488 1.224.72.208 1.864.312 3.432.312V35c-4.512-.096-8.016-.144-10.512-.144-2.272 0-5.568.048-9.888.144v-.96c1.568 0 2.712-.104 3.432-.312.72-.208 1.216-.616 1.488-1.224s.408-1.584.408-2.928V2.12h-.048c-1.952 0-3.752.92-5.4 2.76-1.648 1.84-3 4.872-4.056 9.096h-1.104c.096-.832.144-1.984.144-3.456 0-2.784-.112-5.952-.336-9.504 3.04.096 8.272.144 15.696.144 7.392 0 12.608-.048 15.648-.144zm20.976-.672c3.616 0 6.784.688 9.504 2.064 2.72 1.376 4.832 3.368 6.336 5.976 1.504 2.608 2.256 5.72 2.256 9.336 0 3.52-.768 6.64-2.304 9.36-1.536 2.72-3.68 4.832-6.432 6.336-2.752 1.504-5.888 2.256-9.408 2.256-3.616 0-6.784-.688-9.504-2.064-2.72-1.376-4.832-3.368-6.336-5.976-1.504-2.608-2.256-5.72-2.256-9.336 0-3.52.768-6.64 2.304-9.36 1.536-2.72 3.68-4.832 6.432-6.336 2.752-1.504 5.888-2.256 9.408-2.256zm-.192.864c-1.568 0-2.952.712-4.152 2.136-1.2 1.424-2.12 3.416-2.76 5.976-.64 2.56-.96 5.488-.96 8.784 0 3.328.368 6.256 1.104 8.784.736 2.528 1.728 4.48 2.976 5.856 1.248 1.376 2.624 2.064 4.128 2.064 1.568 0 2.952-.712 4.152-2.136 1.2-1.424 2.12-3.416 2.76-5.976.64-2.56.96-5.488.96-8.784 0-3.328-.368-6.256-1.104-8.784-.736-2.528-1.728-4.48-2.976-5.856-1.248-1.376-2.624-2.064-4.128-2.064zm52.464.768c-.992.224-1.728.568-2.208 1.032-.48.464-.8 1.176-.96 2.136-.16.96-.24 2.4-.24 4.32v11.568c0 4.608-.656 8-1.968 10.176-.864 1.44-2.136 2.544-3.816 3.312-1.68.768-3.848 1.152-6.504 1.152-3.872 0-6.88-.768-9.024-2.304-1.568-1.12-2.616-2.624-3.144-4.512-.528-1.888-.792-4.448-.792-7.68V6.104c0-1.216-.08-2.096-.24-2.64-.16-.544-.472-.912-.936-1.104-.464-.192-1.208-.32-2.232-.384v-.96c1.824.096 4.64.144 8.448.144 3.776 0 6.64-.048 8.592-.144v.96c-1.152.064-1.992.192-2.52.384s-.888.56-1.08 1.104c-.192.544-.288 1.424-.288 2.64v19.584c0 3.072.48 5.224 1.44 6.456.96 1.232 2.48 1.848 4.56 1.848 3.04 0 5.2-1.08 6.48-3.24 1.28-2.16 1.92-5.224 1.92-9.192V10.424c0-2.368-.096-4.072-.288-5.112-.192-1.04-.616-1.8-1.272-2.28-.656-.48-1.752-.832-3.288-1.056v-.96c1.312.096 3.104.144 5.376.144 1.696 0 3.024-.048 3.984-.144v.96zm36.384 31.104c-.96.96-2.016 1.632-3.168 2.016-1.152.384-2.496.576-4.032.576-2.208 0-3.92-.392-5.136-1.176-1.216-.784-1.968-2.12-2.256-4.008l-.72-4.8c-.32-2.24-.76-3.936-1.32-5.088-.56-1.152-1.4-1.728-2.52-1.728h-2.16v11.04c0 1.216.088 2.096.264 2.64.176.544.488.912.936 1.104.448.192 1.184.32 2.208.384V35c-1.856-.096-4.528-.144-8.016-.144-3.872 0-6.72.048-8.544.144v-.96c1.024-.064 1.768-.192 2.232-.384.464-.192.776-.56.936-1.104.16-.544.24-1.424.24-2.64V6.104c0-1.216-.088-2.096-.264-2.64-.176-.544-.488-.912-.936-1.104-.448-.192-1.184-.32-2.208-.384v-.96c1.824.096 4.576.144 8.256.144l5.52-.048c.64-.032 1.376-.048 2.208-.048 4.864 0 8.488.688 10.872 2.064 2.384 1.376 3.576 3.472 3.576 6.288 0 2.4-.896 4.448-2.688 6.144-1.792 1.696-4.8 2.736-9.024 3.12 3.264.224 5.728.84 7.392 1.848 1.664 1.008 2.688 2.488 3.072 4.44l1.008 4.992c.224 1.184.496 2 .816 2.448.32.448.768.672 1.344.672.576 0 1.072-.208 1.488-.624l.624.624zm-18.72-31.104c-.736 0-1.288.112-1.656.336-.368.224-.616.624-.744 1.2s-.192 1.44-.192 2.592v11.808h1.296c2.272 0 3.824-.696 4.656-2.088.832-1.392 1.248-3.352 1.248-5.88 0-2.624-.36-4.608-1.08-5.952-.72-1.344-1.896-2.016-3.528-2.016zM355.72.344c1.824 0 3.304.168 4.44.504 1.136.336 2.248.808 3.336 1.416.352.192.664.352.936.48s.504.192.696.192c.288 0 .512-.168.672-.504.16-.336.288-.872.384-1.608h1.104c-.16 2.304-.24 6.208-.24 11.712h-1.104a16.255 16.255 0 0 0-1.248-5.232c-.704-1.664-1.664-3.024-2.88-4.08s-2.624-1.584-4.224-1.584c-1.472 0-2.656.392-3.552 1.176-.896.784-1.344 1.88-1.344 3.288 0 1.088.24 2.032.72 2.832.48.8 1.184 1.576 2.112 2.328.928.752 2.448 1.864 4.56 3.336.192.096.376.208.552.336.176.128.344.256.504.384 1.76 1.216 3.168 2.296 4.224 3.24a11.643 11.643 0 0 1 2.568 3.288c.656 1.248.984 2.688.984 4.32 0 2.08-.584 3.832-1.752 5.256-1.168 1.424-2.744 2.488-4.728 3.192-1.984.704-4.176 1.056-6.576 1.056-1.952 0-3.576-.16-4.872-.48a18.32 18.32 0 0 1-3.624-1.296c-.704-.448-1.248-.672-1.632-.672-.288 0-.512.168-.672.504-.16.336-.288.872-.384 1.608h-1.104c.128-2.176.192-6.816.192-13.92h1.104c.224 3.808 1.024 6.896 2.4 9.264 1.376 2.368 3.488 3.552 6.336 3.552 1.76 0 3.16-.416 4.2-1.248 1.04-.832 1.56-1.984 1.56-3.456 0-1.824-.568-3.384-1.704-4.68-1.136-1.296-2.904-2.744-5.304-4.344-1.92-1.28-3.456-2.4-4.608-3.36a12.517 12.517 0 0 1-2.832-3.336c-.736-1.264-1.104-2.728-1.104-4.392 0-2.016.544-3.704 1.632-5.064 1.088-1.36 2.536-2.368 4.344-3.024 1.808-.656 3.784-.984 5.928-.984z" fill="#C03B2B"/></svg>